<svg width="14" height="18" viewBox="0 0 14 18" fill="none" xmlns="http://www.w3.org/2000/svg">
<path fill-rule="evenodd" clip-rule="evenodd" d="M7.00095 4.84229C5.36167 4.84229 4.03125 6.17271 4.03125 7.81198C4.03125 9.45125 5.36167 10.7817 7.00095 10.7817C8.64022 10.7817 9.97064 9.45125 9.97064 7.81198C9.97064 6.17271 8.64022 4.84229 7.00095 4.84229ZM5.21913 7.81198C5.21913 6.82604 6.01501 6.03016 7.00095 6.03016C7.98689 6.03016 8.78277 6.82604 8.78277 7.81198C8.78277 8.79792 7.98689 9.5938 7.00095 9.5938C6.01501 9.5938 5.21913 8.79792 5.21913 7.81198Z" fill="#FFED00"/>
<path fill-rule="evenodd" clip-rule="evenodd" d="M6.60546 17.7754C6.60546 17.7754 6.60545 17.7754 7 17.2726L6.60546 17.7754C6.83455 17.9536 7.16545 17.9536 7.39454 17.7754L7 17.2726C7.39455 17.7754 7.39454 17.7754 7.39454 17.7754V17.769H7.40091L7.41365 17.7563C7.43274 17.7436 7.45181 17.7309 7.4709 17.7054C7.52181 17.6672 7.59179 17.6099 7.68724 17.5336C7.86543 17.3808 8.11999 17.1581 8.42545 16.8717C9.03636 16.3054 9.85728 15.4908 10.6718 14.4981C12.2882 12.5508 14 9.80806 14 6.89351C14 3.11987 10.85 0.0908203 7 0.0908203C3.15 0.0908203 0 3.11987 0 6.89351C0 9.80806 1.71181 12.5508 3.32817 14.4981C4.14271 15.4908 4.96364 16.3054 5.57455 16.8717C5.88001 17.1581 6.13457 17.3808 6.31276 17.5336C6.40821 17.6099 6.47819 17.6672 6.5291 17.7054C6.54819 17.7309 6.56726 17.7436 6.58635 17.7563L6.59909 17.769H6.60546V17.7754ZM1.27273 6.89351C1.27273 3.85806 3.81818 1.36355 7 1.36355C10.1818 1.36355 12.7273 3.85806 12.7273 6.89351C12.7273 9.34351 11.2573 11.7935 9.69181 13.6899C8.91544 14.6254 8.14546 15.4017 7.56 15.9363C7.34364 16.1399 7.15273 16.3117 7 16.4453C6.84727 16.3117 6.65636 16.1399 6.44 15.9363C5.85454 15.4017 5.08456 14.6254 4.30819 13.6899C2.74274 11.7935 1.27273 9.34351 1.27273 6.89351Z" fill="#FFED00"/>
</svg>
