<svg width="14" height="14" viewBox="0 0 14 14" fill="none" xmlns="http://www.w3.org/2000/svg">
<path d="M5.02703 5.10612L4.0012 6.13194C4.51392 6.80228 5.11731 7.5166 5.80042 8.19971C6.48316 8.88245 7.19708 9.48557 7.86834 9.99879L8.89401 8.97312C9.32114 8.54599 10.0137 8.54599 10.4408 8.97312L12.761 11.2933L11.6009 12.4534L11.2405 12.8138C10.5143 13.5401 9.38617 13.6593 8.51721 13.1117C7.37197 12.39 5.75344 11.2463 4.25364 9.74654C2.75383 8.24676 1.61018 6.62818 0.888413 5.48294C0.340772 4.61398 0.460045 3.48589 1.18635 2.75961L1.54674 2.39922L2.70683 1.23914L5.02703 3.55933C5.45416 3.98644 5.45416 4.67898 5.02703 5.10612Z" stroke="white" stroke-width="1.32812" stroke-miterlimit="10" stroke-linecap="round" stroke-linejoin="round"/>
</svg>
