<svg width="42" height="42" viewBox="0 0 42 42" fill="none" xmlns="http://www.w3.org/2000/svg">
<g clip-path="url(#clip0_30_35022)">
<g clip-path="url(#clip1_30_35022)">
<path d="M14.2368 12.1254V10.027C14.2368 7.58112 15.4482 5.29401 17.4715 3.91974L21.0001 1.52295L24.5288 3.91966C26.5521 5.29393 27.7634 7.58104 27.7634 10.0269V12.1253" stroke="#FFED00" stroke-miterlimit="10"/>
<path d="M21 20.9712V18.4741C21 16.7175 19.6024 15.2935 17.8785 15.2935H17.3582C17.3582 13.5488 15.9423 12.1255 14.2367 12.1255C14.2367 10.3562 12.8435 8.93237 11.1152 8.93237C9.387 8.93237 7.98705 10.363 7.99378 12.1255C6.2612 12.1255 4.87225 13.5488 4.87225 15.2935H4.352C2.62804 15.2934 1.23047 16.7175 1.23047 18.474V20.9711" stroke="#FFED00" stroke-miterlimit="10"/>
<path d="M11.1152 15.4761V20.9713" stroke="#FFED00" stroke-miterlimit="10"/>
<path d="M40.7695 20.9712V18.4741C40.7695 16.7175 39.372 15.2935 37.648 15.2935H37.1278C37.1278 13.5488 35.7118 12.1255 34.0062 12.1255C34.0062 10.3562 32.613 8.93237 30.8848 8.93237C29.1565 8.93237 27.7566 10.363 27.7633 12.1255C26.0307 12.1255 24.6418 13.5488 24.6418 15.2935H24.1215C22.3976 15.2935 21 16.7175 21 18.4741V20.9712" stroke="#FFED00" stroke-miterlimit="10"/>
<path d="M30.8848 15.4761V20.9713" stroke="#FFED00" stroke-miterlimit="10"/>
<path d="M29.6133 35.812H12.3867V40.7339H29.6133V35.812Z" stroke="#FFED00" stroke-miterlimit="10"/>
<path d="M21 6.85962V18.8806" stroke="#FFED00" stroke-miterlimit="10"/>
<path d="M1.25732 25.9148H40.7427" stroke="#FFED00" stroke-miterlimit="10"/>
<path d="M33.3867 35.8121H8.61328C4.53584 35.8121 1.23047 32.5068 1.23047 28.4293V20.9712H40.7695V28.4293C40.7695 32.5068 37.4642 35.8121 33.3867 35.8121Z" stroke="#FFED00" stroke-miterlimit="10"/>
</g>
</g>
<defs>
<clipPath id="clip0_30_35022">
<rect width="42" height="42" fill="white"/>
</clipPath>
<clipPath id="clip1_30_35022">
<rect width="42" height="42" fill="white"/>
</clipPath>
</defs>
</svg>
