<svg width="14" height="14" viewBox="0 0 14 14" fill="none" xmlns="http://www.w3.org/2000/svg">
<path d="M5.02703 5.10599L4.0012 6.13182C4.51392 6.80215 5.11731 7.51648 5.80042 8.19958C6.48316 8.88233 7.19708 9.48545 7.86834 9.99867L8.89401 8.973C9.32114 8.54587 10.0137 8.54587 10.4408 8.973L12.761 11.2932L11.6009 12.4533L11.2405 12.8137C10.5143 13.54 9.38617 13.6592 8.51721 13.1116C7.37197 12.3899 5.75344 11.2462 4.25364 9.74642C2.75383 8.24664 1.61018 6.62806 0.888413 5.48282C0.340772 4.61386 0.460045 3.48577 1.18635 2.75949L1.54674 2.3991L2.70683 1.23901L5.02703 3.55921C5.45416 3.98632 5.45416 4.67886 5.02703 5.10599Z" stroke="white" stroke-width="1.32812" stroke-miterlimit="10" stroke-linecap="round" stroke-linejoin="round"/>
</svg>
