<svg width="42" height="42" viewBox="0 0 42 42" fill="none" xmlns="http://www.w3.org/2000/svg">
<g clip-path="url(#clip0_30_35053)">
<path d="M14.4106 22.318V7.82025C14.4106 4.18085 17.3608 1.23043 21.0005 1.23043C24.6401 1.23043 27.5904 4.18085 27.5904 7.82025V8.8184L34.0201 2.38846C35.5641 0.844308 38.0676 0.844308 39.6116 2.38846C41.1556 3.93254 41.1556 6.43605 39.6116 7.98012L34.886 12.706L37.6682 15.4882C38.6975 16.5176 38.6975 18.1865 37.6682 19.2159C36.6381 20.2454 34.9696 20.2454 33.9403 19.2159L31.1581 16.4339L27.5903 20.0017V38.1335C27.5903 39.5893 26.41 40.7694 24.9543 40.7694H17.0464C15.5907 40.7694 14.4104 39.5893 14.4104 38.1335V33.5012L12.7063 31.7972L10.842 33.661C9.8127 34.6904 8.1441 34.6904 7.11478 33.661C6.08479 32.6316 6.08479 30.9627 7.11478 29.9332L8.97836 28.0693L2.38846 21.4795C0.844471 19.9354 0.844471 17.4319 2.38846 15.8879C3.93246 14.3438 6.43597 14.3438 7.97996 15.8879L14.4106 22.318Z" stroke="#FFED00" stroke-miterlimit="10" stroke-linecap="round" stroke-linejoin="round"/>
<path d="M14.4106 9.13831H17.0466" stroke="#FFED00" stroke-miterlimit="10" stroke-linecap="round" stroke-linejoin="round"/>
<path d="M27.5901 24.9539H24.9541" stroke="#FFED00" stroke-miterlimit="10" stroke-linecap="round" stroke-linejoin="round"/>
<path d="M14.4106 19.682H17.0466" stroke="#FFED00" stroke-miterlimit="10" stroke-linecap="round" stroke-linejoin="round"/>
<path d="M27.5901 35.4977H24.9541" stroke="#FFED00" stroke-miterlimit="10" stroke-linecap="round" stroke-linejoin="round"/>
<path d="M14.4106 14.4102H18.3646" stroke="#FFED00" stroke-miterlimit="10" stroke-linecap="round" stroke-linejoin="round"/>
<path d="M27.5901 30.2258H23.6362" stroke="#FFED00" stroke-miterlimit="10" stroke-linecap="round" stroke-linejoin="round"/>
<path d="M29.3604 7.04822L31.2239 8.91221" stroke="#FFED00" stroke-miterlimit="10" stroke-linecap="round" stroke-linejoin="round"/>
<path d="M7.11475 26.2056L8.97841 24.3418" stroke="#FFED00" stroke-miterlimit="10" stroke-linecap="round" stroke-linejoin="round"/>
<path d="M33.0884 3.32056L34.952 5.18439" stroke="#FFED00" stroke-miterlimit="10" stroke-linecap="round" stroke-linejoin="round"/>
<path d="M3.38672 22.4779L5.2503 20.614" stroke="#FFED00" stroke-miterlimit="10" stroke-linecap="round" stroke-linejoin="round"/>
</g>
<defs>
<clipPath id="clip0_30_35053">
<rect width="42" height="42" fill="white"/>
</clipPath>
</defs>
</svg>
