<svg width="10" height="14" viewBox="0 0 10 14" fill="#FFED00" xmlns="http://www.w3.org/2000/svg">
<path d="M9.42 5.39886C9.42 4.74716 9.29728 4.13778 9.05183 3.57072C8.80639 2.99519 8.47208 2.49372 8.04889 2.06631C7.62571 1.6389 7.12636 1.29824 6.55084 1.04433C5.98377 0.798884 5.37439 0.676162 4.7227 0.676162C4.071 0.676162 3.46162 0.798884 2.89456 1.04433C2.31903 1.29824 1.81756 1.6389 1.39015 2.06631C0.962736 2.49372 0.622075 2.99519 0.368167 3.57072C0.122722 4.13778 0 4.74716 0 5.39886C0 5.42425 0 5.44752 0 5.46868C0 5.48984 0 5.50888 0 5.52581C0 5.58506 0.0021159 5.6443 0.00634771 5.70355C0.0105795 5.76279 0.021159 5.81357 0.0380863 5.85589C0.0380863 5.87282 0.0380863 5.88551 0.0380863 5.89398C0.0380863 5.90244 0.0380863 5.91091 0.0380863 5.91937C0.0380863 5.96169 0.0465499 6.00824 0.0634771 6.05902C0.0804043 6.1098 0.0888679 6.15635 0.0888679 6.19867C0.0888679 6.23252 0.0952156 6.26849 0.107911 6.30658C0.120606 6.34467 0.126954 6.3891 0.126954 6.43988C0.30469 7.24392 0.647466 8.07336 1.15528 8.92818C1.65464 9.78301 2.1688 10.5617 2.69778 11.2641C3.22675 11.9666 3.69437 12.5421 4.10062 12.9907C4.51534 13.4478 4.7227 13.6763 4.7227 13.6763C4.7227 13.6763 4.9089 13.4731 5.28129 13.0669C5.65369 12.6606 6.08957 12.1359 6.58892 11.4927C7.08827 10.8494 7.5834 10.1258 8.07429 9.32174C8.57364 8.5177 8.94604 7.71789 9.19148 6.92231C9.21687 6.79535 9.2465 6.67686 9.28035 6.56684C9.31421 6.45681 9.34806 6.33409 9.38191 6.19867C9.4073 6.08018 9.42423 5.96592 9.4327 5.85589C9.44116 5.74587 9.44539 5.63161 9.44539 5.51312V5.48773C9.43693 5.47926 9.43058 5.46445 9.42635 5.44329C9.42212 5.42213 9.42 5.40732 9.42 5.39886ZM4.74809 7.73481C4.09639 7.73481 3.54202 7.50841 3.08499 7.05561C2.62795 6.60281 2.39943 6.05056 2.39943 5.39886C2.39943 4.74716 2.62795 4.19491 3.08499 3.74211C3.54202 3.2893 4.09639 3.0629 4.74809 3.0629C5.39978 3.0629 5.95203 3.2893 6.40484 3.74211C6.85764 4.19491 7.08404 4.74716 7.08404 5.39886C7.08404 6.05056 6.85764 6.60281 6.40484 7.05561C5.95203 7.50841 5.39978 7.73481 4.74809 7.73481Z" fill="#0E0D0C"/>
</svg>
